<svg id="artwork" xmlns="http://www.w3.org/2000/svg" viewBox="0 0 512 512"><title>Cash_on_delivery</title><g id="Cash_on_delivery"><rect x="290.42" y="117.21" width="112.69" height="208.66" style="fill:#3dc9c9"/><path d="M309.59,291a16.49,16.49,0,0,1,16.25,16.73h42.22A16.49,16.49,0,0,1,384.32,291V155.35a16.49,16.49,0,0,1-16.26-16.71H325.84a16.49,16.49,0,0,1-16.25,16.71V291Z" style="fill:#f2f2f2"/><circle cx="346.76" cy="225.05" r="21.9" transform="matrix(1, -0.03, 0.03, 1, -6.45, 10.27)" style="fill:#f47a53"/><path d="M314.54,176.1a14,14,0,0,1-14,14h-16.1c-8.06,0-14.6-6.28-14.6-14h0c0-7.74,6.54-14,14.6-14h16.1a14,14,0,0,1,14,14Z" style="fill:#ffaf9f"/><path d="M307.1,204.13a14,14,0,0,1-14,14H277c-8.06,0-14.6-6.27-14.6-14h0c0-7.74,6.54-14,14.6-14h16.1a14,14,0,0,1,14,14Z" style="fill:#ffaf9f"/><path d="M309.75,232.17a14,14,0,0,1-14,14h-16.1c-8.06,0-14.6-6.28-14.6-14h0c0-7.74,6.54-14,14.6-14h16.1a14,14,0,0,1,14,14Z" style="fill:#ffaf9f"/><path d="M314.54,260.21a14,14,0,0,1-14,14h-16.1c-8.06,0-14.6-6.28-14.6-14h0c0-7.74,6.54-14,14.6-14h16.1a14,14,0,0,1,14,14Z" style="fill:#ffaf9f"/><path d="M501.8,189.21v95.41h-30v0H458.26L435,298.21a143.2,143.2,0,0,1-26.78,11.6h-5.69V215.69c-.38-.31-.75-.62-1.12-.95a74.71,74.71,0,0,1-22.24-31.69l-.14-.46H351.15a12.37,12.37,0,0,1-3.61-.53,12.94,12.94,0,0,1-4.24-2.18l-.12-.1-.59-.56a14.39,14.39,0,0,1-3.26-5.1,14.9,14.9,0,0,1-.89-5.08,13.93,13.93,0,0,1,9.67-13.49,12.3,12.3,0,0,1,3.6-.53H391a45,45,0,0,1,13.21,2.1c12,3.67,23.37,11.53,34.16,18.47l21.12,13.62H501.8Z" style="fill:#ffaf9f"/><rect x="471.8" y="188.2" width="30" height="96.5" style="fill:#fff"/><rect x="69.31" y="217.54" width="173.53" height="173.53" style="fill:#f47a53"/><rect x="92.76" y="317.02" width="49.3" height="12" style="fill:#3e4757"/><rect x="156.08" y="317.02" width="23.05" height="12" style="fill:#3e4757"/><rect x="185.5" y="241.01" width="33.37" height="33.37" style="fill:#3dc9c9"/><rect x="92.43" y="267.92" width="45.29" height="12" style="fill:#fff"/><rect x="92.43" y="246.04" width="45.29" height="12" style="fill:#fff"/><path d="M146.79,386l46.78,7h0a57.8,57.8,0,0,0,34.35-5.62l54.94-27.27a20.6,20.6,0,1,1,14.86,38.43l-86.06,39.38s-24.57,11.71-49.32,9L50,436.46l.33-53.79h0A96.49,96.49,0,0,1,123.54,348l4.77,0,68.22.07a20.37,20.37,0,0,1,17.89,28.46c-.2.45-.41.9-.65,1.33a18.47,18.47,0,0,1-1.28,2.15,20.39,20.39,0,0,1-17.59,8.79l-55.4-3.2" style="fill:#ffaf9f"/><rect x="14.43" y="370.07" width="35.52" height="71.45" style="fill:#3e4757"/><path d="M224.87,234.56H179.5v45.36h45.37Zm-12,33.36H191.5V246.56h21.37Z"/><path d="M319.81,225.05a26.95,26.95,0,1,0,26.95-27A27,27,0,0,0,319.81,225.05Zm26.95-15a15,15,0,1,1-14.95,15A15,15,0,0,1,346.76,210.1Z"/><path d="M507.8,183.21H461.22l-19.64-12.67-3.48-2.25c-9.21-6-18.7-12.12-29-15.84V111.57H284.42v44.51h-.18c-11.36,0-20.6,9-20.6,20a19.4,19.4,0,0,0,3.14,10.56,19.67,19.67,0,0,0-3.22,32.79,19.57,19.57,0,0,0-4.71,12.72,19.86,19.86,0,0,0,8.72,16.33,19.48,19.48,0,0,0-3.93,11.71c0,11,9.24,20,20.6,20h.17v51.64H409.1V315.82l.91-.28a149.44,149.44,0,0,0,28-12.15l21.85-12.8h5.91v0h42ZM296.42,123.57H397.11v25.86A45.69,45.69,0,0,0,391,149H380.14c-2.94-3.13-6.16-8.4-6.16-10.37v-6H319.54v6A10.35,10.35,0,0,1,309.2,149h-6v7.33a19.36,19.36,0,0,0-2.86-.23h-3.92Zm37.29,52.64a20.29,20.29,0,0,0,4.64,7.24c.26.26.54.53.81.77l.39.34a18.45,18.45,0,0,0,6.8,3.68,18.17,18.17,0,0,0,5.36.8h23.71c.69,1.67,1.65,3.77,2.9,6.13v91a22.47,22.47,0,0,0-15.53,15.53H330.72a22.45,22.45,0,0,0-15.52-15.53V273.58a19.94,19.94,0,0,0-3.4-29.76,19.93,19.93,0,0,0-3.43-27,19.91,19.91,0,0,0,1.56-23.16,20,20,0,0,0,5.27-30.93v-2.57a22.46,22.46,0,0,0,15.52-15.52h32.52a32.48,32.48,0,0,0,2.12,4.37H351.71a18.12,18.12,0,0,0-5.3.78,20,20,0,0,0-14,19.24A21,21,0,0,0,333.71,176.21Zm-54.26,64c-4.74,0-8.6-3.6-8.6-8s3.86-8,8.6-8h16.1a8,8,0,0,1,0,16h-16.1Zm-2.65-28c-4.74,0-8.6-3.59-8.6-8s3.86-8,8.6-8h16.1a8,8,0,1,1,0,16H276.8Zm7.44-44.07h16.1a8,8,0,1,1,0,16h-16.1c-4.74,0-8.6-3.6-8.6-8S279.5,168.08,284.24,168.08Zm-8.6,92.13c0-4.42,3.86-8,8.6-8h16.1a8,8,0,1,1,0,16h-16.1C279.5,268.23,275.64,264.63,275.64,260.21ZM397.1,319.87H296.41V280.23h3.93a20.82,20.82,0,0,0,2.86-.23v17.34h6a10.36,10.36,0,0,1,10.34,10.35v6H374v-6a10.36,10.36,0,0,1,10.34-10.35h6V212.25a82.66,82.66,0,0,0,6.78,6.68Zm59.53-41.28L432,293a137.72,137.72,0,0,1-22.88,10.18V213.32l-2.18-1.8c-.54-.45-1.08-.89-1.57-1.32-15.25-13.21-19.93-28.67-20-28.8l-1.25-4.35H351.71a6.44,6.44,0,0,1-1.92-.29,6.63,6.63,0,0,1-2.55-1.41l-.16-.14-.23-.22a8.32,8.32,0,0,1-1.88-2.91,9,9,0,0,1-.53-3,8,8,0,0,1,5.43-7.77,6.49,6.49,0,0,1,1.84-.26H391a38.79,38.79,0,0,1,11.46,1.84c9.92,3,19.7,9.37,29.15,15.5,1.18.76,2.35,1.53,3.51,2.27l22.6,14.58h8.12v19h12v-19l18,0v83.39h-18V225.05h-12V278.6Z"/><path d="M305.33,357.57a26.58,26.58,0,0,0-24.63-2.87l-.26.1-31.6,15.69v-159H105v12H236.84v152.9l-11.63,5.77a51.78,51.78,0,0,1-9.6,3.72,26.68,26.68,0,0,0,1.82-2.35,24.06,24.06,0,0,0,1.64-2.73c.34-.62.62-1.22.86-1.76a26.38,26.38,0,0,0-23.17-36.85l-68.51-.07-4.76,0a102.37,102.37,0,0,0-48.18,12.5V223.54H92.43v-12H63.31V362.39q-3.81,2.83-7.36,6v-4.34H8.43v83.46H56v-4.25l105.79,9.78a78.35,78.35,0,0,0,8.34.44c22.93,0,43.2-9.52,44.07-9.93l85.91-39.32a26.59,26.59,0,0,0,16.83-24.74A26.59,26.59,0,0,0,305.33,357.57Zm-4.72,32.28a14.44,14.44,0,0,1-5.06,3.28l-86.47,39.56c-.23.11-23.4,10.93-46.08,8.43L56,431.23V418.48H44v17H20.43V376.07H44v29.48H56v-20a90.32,90.32,0,0,1,67.64-31.3l4.71,0,68.1.07a14.38,14.38,0,0,1,12.54,20c-.13.28-.27.59-.4.83l-.11.19a12,12,0,0,1-.88,1.48A14.3,14.3,0,0,1,195.19,383l-55.34-3.21-.7,12,7,.41,46.54,7a63.41,63.41,0,0,0,37.88-6.19l54.67-27.14a14.61,14.61,0,0,1,15.35,24.05Z"/></g></svg>