<?xml version="1.0" encoding="iso-8859-1"?>
<!-- Uploaded to: SVG Repo, www.svgrepo.com, Generator: SVG Repo Mixer Tools -->
<svg height="800px" width="800px" version="1.1" id="Layer_1" xmlns="http://www.w3.org/2000/svg" xmlns:xlink="http://www.w3.org/1999/xlink" 
	 viewBox="0 0 512 512" xml:space="preserve">
<path style="fill:#717272;" d="M477.867,285.867c0,4.693,3.84,8.533,8.533,8.533h8.533v42.667h-15.616
	c-13.483-30.891-44.203-51.2-78.251-51.2c-11.776,0-23.467,2.475-34.133,7.168V183.467H384v68.267c0,4.693,3.84,8.533,8.533,8.533
	h102.4v17.067H486.4C481.707,277.333,477.867,281.173,477.867,285.867z"/>
<path style="fill:#00796B;" d="M315.904,337.067h-126.72c-13.483-30.891-44.203-51.2-78.251-51.2s-64.768,20.309-78.251,51.2H17.067
	v-25.6c4.693,0,8.533-3.84,8.533-8.533v-25.6h8.533c4.693,0,8.533-3.84,8.533-8.533s-3.84-8.533-8.533-8.533H25.6V192h226.901
	l-19.627,19.541c-3.328,3.328-3.328,8.789,0,12.117c1.707,1.621,3.84,2.475,6.059,2.475c2.219,0,4.352-0.853,6.059-2.475
	l34.133-34.133c3.328-3.328,3.328-8.789,0-12.117l-34.133-34.133c-3.328-3.328-8.789-3.328-12.117,0
	c-3.328,3.328-3.328,8.789,0,12.117l19.627,19.541H25.6v-68.267h273.067c9.387,0,17.067,7.68,17.067,17.067v187.221
	C315.733,322.475,315.733,330.837,315.904,337.067z"/>
<polygon style="fill:#FFFFFF;" points="488.96,243.2 401.067,243.2 401.067,183.467 455.765,183.467 "/>
<path d="M401.067,320c-28.245,0-51.2,22.955-51.2,51.2s22.955,51.2,51.2,51.2c28.245,0,51.2-22.955,51.2-51.2
	C452.267,342.955,429.312,320,401.067,320z M401.067,405.333c-18.859,0-34.133-15.275-34.133-34.133
	c0-18.859,15.275-34.133,34.133-34.133c18.859,0,34.133,15.275,34.133,34.133C435.2,390.059,419.925,405.333,401.067,405.333z"/>
<circle style="fill:#FFFFFF;" cx="401.067" cy="371.2" r="34.133"/>
<path d="M110.933,320c-28.245,0-51.2,22.955-51.2,51.2s22.955,51.2,51.2,51.2s51.2-22.955,51.2-51.2
	C162.133,342.955,139.179,320,110.933,320z M110.933,405.333c-18.859,0-34.133-15.275-34.133-34.133
	c0-18.859,15.275-34.133,34.133-34.133s34.133,15.275,34.133,34.133C145.067,390.059,129.792,405.333,110.933,405.333z"/>
<circle style="fill:#FFFFFF;" cx="110.933" cy="371.2" r="34.133"/>
<path d="M510.891,247.552l-42.667-76.8c-1.451-2.645-4.352-4.352-7.424-4.352H358.4c-4.693,0-8.533,3.84-8.533,8.533v128H332.8
	c0-64.427,0-179.2,0-179.2c0-18.859-15.275-34.133-34.133-34.133h-281.6c-4.693,0-8.533,3.84-8.533,8.533V294.4
	C3.84,294.4,0,298.24,0,302.933V345.6c0,2.304,0.939,4.437,2.475,6.059c1.621,1.621,3.755,2.475,6.059,2.475h25.6
	c0,0,8.533,0,12.885-6.912c9.899-26.539,35.499-44.288,63.915-44.288c28.928,0,54.784,18.261,64.341,45.483
	c1.28,3.413,4.437,5.717,8.107,5.717h140.885c4.693,0,8.533-3.84,8.533-8.533V320h19.968c1.963,0,3.84-0.683,5.376-1.877
	c12.288-9.984,27.136-15.189,42.923-15.189c28.928,0,54.784,18.261,64.341,45.483c1.28,3.413,4.437,5.717,8.107,5.717h29.952
	c4.693,0,8.533-3.84,8.533-8.533v-93.867C512,250.283,511.659,248.832,510.891,247.552z M189.184,337.067
	c-13.483-30.891-44.203-51.2-78.251-51.2s-64.768,20.309-78.251,51.2H17.067v-25.6c4.693,0,8.533-3.84,8.533-8.533v-25.6h8.533
	c4.693,0,8.533-3.84,8.533-8.533s-3.84-8.533-8.533-8.533H25.6V192h226.901l-19.627,19.541c-3.328,3.328-3.328,8.789,0,12.117
	c1.707,1.621,3.84,2.475,6.059,2.475c2.219,0,4.352-0.853,6.059-2.475l34.133-34.133c3.328-3.328,3.328-8.789,0-12.117
	l-34.133-34.133c-3.328-3.328-8.789-3.328-12.117,0c-3.328,3.328-3.328,8.789,0,12.117l19.627,19.541H25.6v-68.267h273.067
	c9.387,0,17.067,7.68,17.067,17.067v187.221c0,11.52,0,19.883,0.171,26.112H189.184z M401.067,183.467h54.699L488.96,243.2h-87.893
	V183.467z M494.933,277.333H486.4c-4.693,0-8.533,3.84-8.533,8.533s3.84,8.533,8.533,8.533h8.533v42.667h-15.616
	c-13.483-30.891-44.203-51.2-78.251-51.2c-11.776,0-23.467,2.475-34.133,7.168V183.467H384v68.267c0,4.693,3.84,8.533,8.533,8.533
	h102.4V277.333z"/>
<g>
	<polygon style="fill:#F4F4F4;" points="455.765,183.467 439.646,183.467 463.36,226.133 401.067,226.133 401.067,243.2 
		488.96,243.2 	"/>
	<path style="fill:#F4F4F4;" d="M420.531,343.202c3.849,5.53,6.135,12.22,6.135,19.465c0,18.859-15.275,34.133-34.133,34.133
		c-7.245,0-13.935-2.287-19.465-6.135c6.17,8.849,16.384,14.669,27.998,14.669c18.859,0,34.133-15.275,34.133-34.133
		C435.2,359.586,429.38,349.372,420.531,343.202z"/>
	<path style="fill:#F4F4F4;" d="M130.398,343.202c3.849,5.53,6.135,12.22,6.135,19.465c0,18.859-15.275,34.133-34.133,34.133
		c-7.245,0-13.935-2.287-19.465-6.135c6.17,8.849,16.384,14.669,27.998,14.669c18.859,0,34.133-15.275,34.133-34.133
		C145.067,359.586,139.247,349.372,130.398,343.202z"/>
</g>
<g>
	<path style="fill:#004D40;" d="M315.733,310.955V123.733c0-9.387-7.68-17.067-17.067-17.067v187.221c0,11.52,0,19.883,0.171,26.112
		H178.961c3.968,5.257,7.526,10.88,10.223,17.067h126.72C315.733,330.837,315.733,322.475,315.733,310.955z"/>
	<path style="fill:#004D40;" d="M17.067,320v17.067h15.616c2.697-6.187,6.255-11.81,10.223-17.067H17.067z"/>
</g>
<g>
	<path style="fill:#555656;" d="M469.094,320c3.968,5.257,7.526,10.88,10.223,17.067h15.616V294.4H486.4
		c-4.693,0-8.533-3.84-8.533-8.533V320H469.094z"/>
	<path style="fill:#555656;" d="M486.4,277.333h8.533v-17.067h-17.067v25.6C477.867,281.173,481.707,277.333,486.4,277.333z"/>
</g>
</svg>