<svg width="80" height="80" viewBox="0 0 80 80" fill="none" xmlns="http://www.w3.org/2000/svg">
<path d="M26.4974 47.0534L31.2466 28.2489L32.2296 24.5127C33.1521 21.006 34.5692 17.6659 36.4331 14.6045L36.8795 13.8714C37.5437 12.7804 38.4832 11.907 39.5922 11.3494L40.3755 10.9556C40.378 10.9543 40.381 10.9547 40.3832 10.9565C40.3854 10.9583 40.3864 10.9613 40.3858 10.9642L39.1682 16.78L37.8956 22.8583L34.5711 35.2692L31.2466 46.0505L28.6507 53.2943C28.1673 54.6432 27.5098 55.9151 26.6967 57.0741L25.9016 58.2074L25.8893 58.225C25.8184 58.326 25.702 58.3797 25.5836 58.366C25.4652 58.3522 25.3627 58.2731 25.3143 58.1582C24.8485 57.0516 24.7265 55.8178 24.9658 54.6335L26.4974 47.0534ZM46.9782 1.46751C47.9821 0.803671 48.3555 0.642159 49.073 0.323913C49.3697 0.192302 49.6812 0.101359 49.9998 0.0532996L50.1225 0.0347856C50.6263 -0.0412022 51.1399 0.00770083 51.6226 0.177601L52.3644 0.438678C52.641 0.535996 52.8721 0.740738 53.0109 1.01135C53.2518 1.48098 53.1306 2.06608 52.7259 2.38654L52.0616 2.91255L49.911 4.40921L47.9069 5.7949L44.9742 7.14447L43.4385 7.67554C42.8803 7.8686 42.2838 7.90347 41.7087 7.77665C41.6764 7.7695 41.6554 7.73628 41.6616 7.70196L41.6932 7.52631C41.7936 6.97013 42.0181 6.44725 42.3483 6.0011L43.0679 5.02852L44.6809 3.32542C44.6809 3.32542 45.7685 2.26745 46.9782 1.46751ZM79.9087 74.0741C80.0337 75.3178 80.0075 75.743 79.9639 76.5633C79.9458 76.9026 79.8867 77.2381 79.788 77.5615L79.7499 77.6861C79.5938 78.1974 79.327 78.6634 78.9708 79.047L78.4233 79.6365C78.2193 79.8563 77.9437 79.9859 77.6524 79.999C77.147 80.0218 76.7021 79.6502 76.6067 79.1257L76.4502 78.2647L76.1189 75.5677L75.8179 73.0584L75.9547 69.6836L76.1758 67.9935C76.2562 67.3791 76.4879 66.7977 76.848 66.3076C76.8683 66.28 76.9058 66.2747 76.9323 66.2956L77.0679 66.4027C77.4974 66.7417 77.844 67.184 78.0791 67.6929L78.5915 68.8022L79.3342 71.0795C79.3342 71.0795 79.7581 72.5754 79.9087 74.0741ZM3.63684 67.128C2.58085 66.5614 2.25743 66.3066 1.62954 65.8212C1.36987 65.6204 1.13563 65.3854 0.93252 65.1218L0.854273 65.0202C0.533131 64.6034 0.308318 64.1134 0.197612 63.589L0.027503 62.7832C-0.0359147 62.4828 0.0112683 62.1682 0.159452 61.9032C0.416627 61.4432 0.954089 61.2516 1.42266 61.4528L2.1918 61.7831L4.51451 62.9587L6.67162 64.0588L9.27772 66.0179L10.4998 67.1342C10.944 67.54 11.2796 68.0619 11.4728 68.6477C11.4836 68.6807 11.4675 68.7168 11.4364 68.7289L11.2775 68.7906C10.7743 68.9863 10.2342 69.0523 9.70194 68.9834L8.54173 68.833L6.32835 68.2503C6.32835 68.2503 4.90933 67.8109 3.63684 67.128ZM53.041 32.9289L66.0901 46.6738L68.6632 49.4408C71.0781 52.0376 73.1092 55.0034 74.6882 58.2385L75.0664 59.0132C75.6291 60.1661 75.8757 61.4619 75.7786 62.7547L75.7099 63.6679C75.7097 63.6708 75.7079 63.6734 75.7053 63.6744C75.7027 63.6755 75.6998 63.6749 75.6977 63.6729L71.5363 59.6517L67.1871 55.449L58.6696 46.2036L51.4889 37.7731L46.8454 31.7775C45.9807 30.661 45.2662 29.4238 44.7222 28.1009L44.1902 26.8072L44.1819 26.7871C44.1344 26.6717 44.1486 26.5385 44.2191 26.4371C44.2896 26.3357 44.4058 26.2815 44.5242 26.2948C45.6647 26.4221 46.7377 26.9275 47.5894 27.7384L53.041 32.9289ZM50.8891 62.8358L33.1771 68.2225L29.6376 69.2572C26.3157 70.2283 22.8743 70.6662 19.4289 70.556L18.6039 70.5296C17.3761 70.4903 16.1831 70.0898 15.1593 69.3733L14.4362 68.8673C14.4338 68.8656 14.4326 68.8627 14.4329 68.8598C14.4333 68.8569 14.4352 68.8545 14.4379 68.8535L19.7864 66.9601L25.3763 64.9813L37.1641 61.598L47.6289 59.054L54.8466 57.6726C56.1906 57.4153 57.5619 57.3554 58.9215 57.4943L60.251 57.6302L60.2717 57.6323C60.3903 57.6444 60.4938 57.7221 60.5436 57.8363C60.5934 57.9506 60.582 58.0842 60.5136 58.1871C59.8551 59.1786 58.9163 59.9245 57.8317 60.3178L50.8891 62.8358Z" fill="black"/>
</svg>
