<svg width="512" height="512" viewBox="0 0 512 512" fill="none" xmlns="http://www.w3.org/2000/svg">
<path d="M369.999 367.963C374.664 367.963 378.908 367.457 382.974 368.093C387.964 368.873 393.226 369.801 397.624 372.095C407.043 377.007 416.03 382.762 425.064 388.379C426.333 389.168 427.633 391.124 427.641 392.546C427.789 422.195 427.753 451.844 427.753 481.837C416.392 486.234 405.151 490.74 393.776 494.877C391.05 495.868 387.879 495.918 384.912 495.923C346.259 495.987 307.605 496.141 268.956 495.768C263.409 495.715 257.206 494.173 252.459 491.369C201.066 461.017 149.895 430.287 98.6868 399.622C91.1208 395.092 87.7871 388.172 89.3757 380.897C91.8969 369.351 103.924 363.765 114.684 369.494C137.124 381.444 159.438 393.632 181.808 405.714C189.704 409.978 197.653 414.148 205.478 418.538C206.901 419.337 208.39 420.798 208.922 422.285C215.537 440.745 230.345 450.251 249.525 445.704C281.183 438.199 312.513 429.315 344.497 420.876C343.017 415.27 341.641 410.06 340.13 404.336C328.439 407.426 317.108 410.441 305.766 413.412C285.679 418.673 265.638 424.128 245.469 429.058C235.87 431.403 227.29 425.826 225.179 416.883C223.028 407.77 228.505 398.743 237.97 396.142C249.983 392.841 262.045 389.719 274.079 386.494C294.299 381.074 314.353 374.884 334.795 370.5C346.028 368.091 357.91 368.709 369.999 367.963Z" fill="#EAE4DC"/>
<path d="M144.392 18.0789C180.666 18.0522 216.481 17.9983 252.296 18.0554C268.476 18.0812 282.658 23.5001 294.274 34.8514C305.565 45.886 316.585 57.1988 328.183 68.8509C326.684 68.9906 325.641 69.1719 324.597 69.1727C303.774 69.1893 282.951 69.2652 262.13 69.0658C259.964 69.045 257.323 67.8791 255.744 66.3664C249.746 60.6216 244.095 54.516 238.553 48.7928C234.153 53.1352 230.28 56.9575 225.707 61.4697C229.48 64.9884 233.706 68.7186 237.695 72.6878C253.635 88.5502 269.541 104.447 285.374 120.417C291.324 126.418 292.53 133.575 289.138 140.509C285.928 147.07 279.254 151.263 271.984 149.777C267.868 148.936 263.496 146.58 260.468 143.641C243.977 127.636 227.868 111.237 211.629 94.9758C188.644 117.386 161.288 113.689 142.985 96.8843C139.529 101.094 136.088 105.285 131.763 110.552C138.354 114.599 144.477 118.719 150.956 122.17C153.712 123.638 154.796 124.992 154.747 128.12C154.56 140.251 154.671 152.386 154.671 164.958C143.826 164.724 134.069 161.907 124.669 157.583C123.462 157.028 122.176 156.534 121.142 155.733C111.055 147.912 100.053 143.335 86.6157 146.741C86.6157 108.978 86.6157 72.1181 86.6157 35.2671C86.9269 35.0858 87.2221 34.7588 87.4733 34.7896C102.329 36.615 115.064 30.782 127.728 24.1239C132.788 21.4638 138.512 20.0682 144.392 18.0789Z" fill="#E9E3DB"/>
<path d="M334.07 86.4819C335.395 86.4023 336.721 86.2534 338.047 86.2531C389.031 86.2412 440.015 86.243 490.998 86.243C492.46 86.243 493.922 86.243 495.672 86.243C495.672 148.928 495.672 211.155 495.672 274.009C442.089 274.009 388.512 274.009 334.469 273.476C334.006 267.683 334.009 262.424 334.012 257.164C365.824 257.109 397.637 257.054 429.449 257C431.432 256.997 433.416 257 435.897 257C435.068 227.741 449.221 213.199 478.678 214.092C478.678 191.321 478.678 168.925 478.678 145.895C466.458 146.923 455.27 145.042 446.273 136.103C437.247 127.134 435.467 115.887 436.171 103.276C402.135 103.276 368.536 103.276 334.468 102.705C334.022 96.9172 334.046 91.6995 334.07 86.4819Z" fill="#ADE232"/>
<path d="M334.01 224.092C355.761 222.374 371.397 210.168 376.014 191.303C382.498 164.812 364.26 139.81 336.956 137.759C336.293 137.709 335.632 137.636 334.498 137.055C334.055 131.25 334.085 125.965 334.114 120.68C343.268 120.566 352.42 120.382 361.574 120.354C379.07 120.302 396.566 120.339 414.062 120.339C415.872 120.339 417.682 120.339 418.274 120.339C422.033 128.004 424.735 135.241 428.863 141.543C435.785 152.107 446.025 158.479 458.233 161.8C459.657 162.188 461.694 164.037 461.725 165.254C462.001 175.9 461.885 186.556 461.885 197.637C439.357 202.976 425.069 216.702 419.633 239.934C391.472 239.934 363.21 239.934 334.477 239.419C334.007 233.967 334.009 229.029 334.01 224.092Z" fill="#6DB338"/>
<path d="M18.0334 99.0001C18.0334 71.8939 18.0334 45.2878 18.0334 18.3585C35.1389 18.3585 51.8455 18.3585 68.8584 18.3585C68.8584 69.3704 68.8584 120.229 68.8584 171.436C52.0352 171.436 35.3264 171.436 18.0334 171.436C18.0334 147.338 18.0334 123.419 18.0334 99.0001Z" fill="#005ECD"/>
<path d="M333.547 257.094C334.009 262.424 334.006 267.683 334.007 273.401C318.52 273.918 303.03 274.018 287.54 274.028C250.887 274.053 214.234 274.036 177.581 274.036C175.796 274.036 174.011 274.036 171.997 274.036C171.997 225.1 171.997 176.691 171.997 127.764C185.437 127.839 198.157 125.353 209.036 118.205C213.979 123.19 218.723 127.972 223.82 133.111C215.466 144.094 203.205 147.052 189.146 145.908C189.146 168.806 189.146 191.193 189.146 214.183C201.086 213.695 212.397 215.314 221.348 224.269C230.327 233.252 232.16 244.471 231.146 257.024C265.554 257.024 299.318 257.024 333.547 257.094Z" fill="#9BDC05"/>
<path d="M495.967 491.799C495.113 493.503 494.274 495.788 493.405 495.8C477.442 496.014 461.476 495.956 445.175 495.956C445.175 450.328 445.175 405.11 445.175 359.584C461.952 359.584 478.547 359.584 495.967 359.584C495.967 403.515 495.967 447.419 495.967 491.799Z" fill="#005ECD"/>
<path d="M333.585 224.022C334.009 229.029 334.007 233.967 334.013 239.357C306.372 239.864 278.723 239.961 251.075 239.835C249.727 239.829 247.54 238.099 247.172 236.775C241.668 216.954 229.223 204.234 209.349 198.684C207.96 198.295 206.082 196.257 206.049 194.945C205.78 184.304 205.898 173.654 205.898 162.528C218.066 159.984 228.38 154.311 237.432 143.735C240.965 147.692 244.102 151.538 247.582 155.043C261.445 169.006 276.666 170.85 293.682 160.807C294.184 160.511 294.779 160.374 295.608 160.056C279.925 195.885 307.43 223.832 333.585 224.022Z" fill="#5EAB24"/>
<path d="M341.382 204.665C325.479 209.25 311.269 198.512 308.751 185.302C306.259 172.236 313.608 159.684 326.433 155.75C338.881 151.931 352.173 158.156 357.313 170.211C362.479 182.327 357.492 196.556 345.869 202.758C344.559 203.457 343.131 203.936 341.382 204.665Z" fill="#EFF0F0"/>
<path d="M333.608 86.3744C334.046 91.6995 334.022 96.9171 334.009 102.607C320.886 103.201 307.751 103.349 294.616 103.393C293.557 103.397 292.22 102.975 291.48 102.265C286.339 97.3338 281.321 92.274 275.268 86.267C295.45 86.267 314.298 86.267 333.608 86.3744Z" fill="#93CE09"/>
<path d="M333.659 120.528C334.085 125.965 334.055 131.25 334.068 136.952C323.284 137.91 313.596 141.686 304.733 148.187C308.684 139.101 308.94 130.276 305.523 120.376C315.18 120.376 324.191 120.376 333.659 120.528Z" fill="#569D22"/>
</svg>
