<svg width="512" height="512" viewBox="0 0 512 512" fill="none" xmlns="http://www.w3.org/2000/svg">
<g clip-path="url(#clip0_209_45)">
<path d="M256.667 1C257 14.4947 257 27.9894 257 41.8727C262.003 42.5981 266.767 43.5513 271.578 43.9401C289.82 45.4144 307.378 50.0421 324.419 56.284C347.807 64.8505 369.983 76.0773 389.286 92.002C401.748 102.282 414.207 112.87 424.963 124.85C447.631 150.099 464.56 178.916 472.995 212.142C476.298 225.154 480.436 238.19 481.616 251.444C483.119 268.324 482.417 285.45 481.919 302.447C481.299 323.595 475.133 343.644 467.959 363.34C460.601 383.541 450.223 402.222 437.105 419.198C428.884 429.838 420.207 440.296 410.563 449.624C396.028 463.685 379.715 475.531 361.747 485.172C345.115 494.096 327.815 501.134 309.564 505.532C298.535 508.19 287.112 509.21 275.877 511.033C274.661 511.23 273.516 511.87 272.669 512.652C259.646 513 246.292 513 232.469 513C231.375 512.336 230.787 511.13 230.12 511.086C209.84 509.724 190.483 504.247 171.806 496.779C153.557 489.481 136.391 479.815 121.056 467.398C111.345 459.536 101.818 451.313 93.1105 442.373C79.8883 428.798 68.1024 413.873 59.5917 396.86C52.6772 383.038 45.8966 368.957 41.1089 354.32C36.6602 340.719 33.9921 326.343 32.268 312.099C30.662 298.831 30.2924 285.213 31.2452 271.882C32.6575 252.125 36.9671 232.787 44.9078 214.451C48.1672 206.924 51.4504 199.408 54.7228 191.887C55.1602 192.072 55.5975 192.257 56.0349 192.441C53.6921 198.102 51.0721 203.666 49.0599 209.441C43.5579 225.233 38.7283 241.231 38.0306 258.1C37.5031 270.853 36.162 283.719 37.2315 296.362C39.9151 328.083 49.5811 357.729 65.5625 385.465C75.1396 402.086 86.8523 416.931 100.258 430.316C112.479 442.517 126.407 452.769 141.592 461.363C160.079 471.824 179.74 478.9 200.302 483.546C208.538 485.407 217.063 486.11 225.497 486.931C232.393 487.603 239.353 488.041 246.275 487.933C272.252 487.531 297.231 482.155 321.275 472.318C348.827 461.045 372.556 444.25 392.276 422.075C408.449 403.888 421.2 383.516 429.102 360.239C433.917 346.054 438.122 331.77 438.929 316.77C439.633 303.7 440.749 290.512 439.763 277.521C437.951 253.627 431.556 230.742 421.481 208.871C411.1 186.334 397.166 166.364 378.965 149.601C358.408 130.669 335.155 116.224 307.466 110.021C292.319 106.627 277.151 103.322 261.972 100.074C258.495 99.3302 256.844 100.636 256.923 104.589C257.145 115.579 257 126.577 257 138.542C221.605 115.648 186.781 93.123 151.194 70.1048C156.202 66.6203 160.681 63.3096 165.349 60.2916C181.935 49.5687 198.582 38.9392 215.213 28.2866C227.889 20.1675 240.586 12.0806 253.242 3.93028C254.178 3.32721 254.859 2.32708 255.329 1.25577C255.444 1 255.889 1 256.667 1Z" fill="#FF80B4"/>
<path d="M376.843 235.031C376.895 266.645 376.958 298.259 376.996 329.873C377.018 348.51 376.879 367.149 377.097 385.785C377.144 389.77 375.921 392.018 372.452 394.004C347.807 408.114 323.307 422.479 298.703 436.661C280.441 447.187 262.09 457.56 243.4 467.573C242.979 415.175 242.937 363.205 243.249 311.12C244.362 310.671 245.159 310.405 245.875 309.995C289.535 285.015 333.189 260.022 376.843 235.031Z" fill="#F88D28"/>
<path d="M242.895 311.235C242.937 363.205 242.979 415.175 243.036 467.618C241.671 467.868 240.082 468.011 238.944 467.363C224.676 459.231 210.477 450.978 196.253 442.77C184.27 435.855 172.269 428.973 160.291 422.051C146.211 413.913 132.146 405.747 118.075 397.591C117.933 397.508 117.822 397.34 117.674 397.302C106.389 394.397 105.698 386.284 105.797 376.277C106.261 329.488 106.017 282.692 106.429 235.512C109.164 236.397 111.517 237.63 113.823 238.946C127.95 247.002 142.067 255.077 156.24 263.605C156.307 277.724 156.45 291.387 156.252 305.044C156.197 308.851 157.254 311.145 160.77 312.916C167.457 316.282 173.888 320.154 180.435 323.799C184.304 325.953 188.19 328.074 192.983 330.714C192.983 314.397 192.983 299.155 193.167 283.886C193.35 283.859 193.721 283.851 194.046 284.016C210.545 293.199 226.72 302.217 242.895 311.235Z" fill="#F16932"/>
<path d="M156.187 263.146C142.067 255.077 127.95 247.002 113.823 238.946C111.517 237.63 109.164 236.397 106.499 235.045C111.719 231.519 117.201 227.951 122.839 224.648C143.63 212.467 164.441 200.322 185.304 188.266C203.092 177.987 220.986 167.894 238.763 157.598C241.176 156.201 242.894 156.27 245.314 157.7C257.572 164.948 269.986 171.933 282.316 179.061C285.254 180.76 288.076 182.659 290.907 185.044C247.98 210.193 205.094 234.756 162.227 259.352C160.395 260.403 158.735 261.756 156.793 263.008C156.59 263.049 156.187 263.146 156.187 263.146Z" fill="#FEC233"/>
<path d="M243.249 311.12C226.72 302.217 210.545 293.199 194.251 283.737C233.087 260.979 272.05 238.677 310.99 216.335C316.728 213.043 322.357 209.56 328.037 206.166C334.784 209.795 341.585 213.327 348.264 217.077C356.978 221.97 365.606 227.015 374.237 232.052C375.204 232.617 375.95 233.56 376.821 234.679C333.189 260.022 289.535 285.015 245.875 309.995C245.159 310.405 244.362 310.671 243.249 311.12Z" fill="#FEC233"/>
<path d="M327.675 206.088C322.357 209.56 316.728 213.043 310.99 216.336C272.05 238.677 233.087 260.979 193.927 283.572C193.721 283.851 193.35 283.859 192.938 283.645C180.682 276.61 168.839 269.789 156.995 262.968C158.735 261.756 160.395 260.403 162.227 259.352C205.094 234.756 247.98 210.193 291.097 185.36C303.326 192.068 315.32 199.039 327.675 206.088Z" fill="#816DB5"/>
<path d="M156.793 263.009C168.839 269.789 180.682 276.611 192.754 283.673C192.983 299.155 192.983 314.397 192.983 330.714C188.19 328.074 184.304 325.953 180.435 323.799C173.888 320.154 167.457 316.282 160.77 312.916C157.254 311.145 156.197 308.851 156.252 305.044C156.45 291.387 156.307 277.724 156.24 263.605C156.187 263.146 156.59 263.049 156.793 263.009Z" fill="#6C488C"/>
</g>
<defs>
<clipPath id="clip0_209_45">
<rect width="512" height="512" fill="white"/>
</clipPath>
</defs>
</svg>
